<?xml version="1.0" standalone="no"?><!DOCTYPE svg PUBLIC "-//W3C//DTD SVG 1.1//EN" "http://www.w3.org/Graphics/SVG/1.1/DTD/svg11.dtd"><svg t="1697523456953" class="icon" viewBox="0 0 1024 1024" version="1.1" xmlns="http://www.w3.org/2000/svg" p-id="4889" xmlns:xlink="http://www.w3.org/1999/xlink" width="200" height="200"><path d="M511.525926 682.666667c-5.688889 0-11.093333-2.275556-15.075556-6.257778l-170.666666-170.856296c-8.343704-8.343704-8.343704-21.807407 0-30.151112s21.807407-8.343704 30.151111 0l155.591111 155.685926 155.591111-155.685926c8.343704-8.343704 21.807407-8.343704 30.151111 0s8.343704 21.807407 0 30.151112l-170.666667 170.856296c-3.982222 3.982222-9.386667 6.257778-15.075555 6.257778z" p-id="4890"></path><path d="M512 682.192593c-11.757037 0-21.333333-9.576296-21.333333-21.333334V149.333333c0-11.757037 9.576296-21.333333 21.333333-21.333333s21.333333 9.576296 21.333333 21.333333V660.859259c0 11.757037-9.576296 21.333333-21.333333 21.333334z" p-id="4891"></path><path d="M853.333333 853.617778H170.666667c-23.514074 0-42.666667-19.152593-42.666667-42.666667v-182.992592c0-11.757037 9.576296-21.333333 21.333333-21.333334s21.333333 9.576296 21.333334 21.333334v182.992592h682.666666v-182.992592c0-11.757037 9.576296-21.333333 21.333334-21.333334s21.333333 9.576296 21.333333 21.333334v182.992592c0 23.514074-19.152593 42.666667-42.666667 42.666667z" p-id="4892"></path></svg>