<svg width="11" height="11" viewBox="0 0 11 11" fill="none" xmlns="http://www.w3.org/2000/svg">
<path d="M3.84615 3.57692H5.97356V4.67067H6.00962C6.15385 4.40625 6.40425 4.15785 6.76082 3.92548C7.11739 3.69311 7.5641 3.57692 8.10096 3.57692C8.66987 3.57692 9.1266 3.66106 9.47115 3.82933C9.81571 3.98958 10.0841 4.21394 10.2764 4.5024C10.4688 4.79087 10.601 5.13141 10.6731 5.52404C10.7372 5.91667 10.7692 6.34135 10.7692 6.79808V10.5H8.54567V7.21875C8.54567 6.82612 8.49559 6.42949 8.39543 6.02885C8.29527 5.62821 7.96074 5.42788 7.39183 5.42788C6.8149 5.42788 6.45032 5.60617 6.29808 5.96274C6.14583 6.31931 6.06971 6.71795 6.06971 7.15865V10.5H3.84615V3.57692ZM0 3.57692H2.30769V10.5H0V3.57692ZM2.30769 1.65385C2.30769 1.97436 2.19551 2.24679 1.97115 2.47115C1.74679 2.69551 1.47436 2.80769 1.15385 2.80769C0.833333 2.80769 0.560897 2.69551 0.336538 2.47115C0.112179 2.24679 0 1.97436 0 1.65385C0 1.33333 0.112179 1.0609 0.336538 0.836538C0.560897 0.612179 0.833333 0.5 1.15385 0.5C1.47436 0.5 1.74679 0.612179 1.97115 0.836538C2.19551 1.0609 2.30769 1.33333 2.30769 1.65385Z" fill="white"/>
</svg>
