<svg width="127" height="25" viewBox="0 0 127 25" fill="none" xmlns="http://www.w3.org/2000/svg">
<path d="M48.8745 11.9287H48.7358C48.5046 11.9516 48.0654 12.1344 47.603 13.0485C46.5164 15.9507 44.2275 21.9608 43.5571 23.2405C42.9328 24.4288 42.4705 24.8402 42.2393 24.9773H46.1233C46.9325 24.9773 47.2099 24.1775 47.2099 24.1775C48.3428 21.3438 51.0015 14.7624 51.5795 13.437C52.2037 12.043 52.8973 11.9287 53.0592 11.9287H48.8745Z" fill="#7BAE2D"/>
<path d="M52.9436 11.9291H53.0823C53.3366 11.952 53.8915 12.2033 54.4001 13.4602C54.4232 13.5288 54.4463 13.5745 54.4695 13.6202L58.2842 22.9895C58.7928 24.2235 59.2321 24.612 60.2262 24.9548H55.6717C54.8625 24.9548 54.5851 24.155 54.5851 24.155C53.4522 21.3213 50.7935 14.7399 50.2155 13.4145C49.5913 12.0205 48.8977 11.9062 48.7358 11.9062H52.9436V11.9291Z" fill="#093A7E"/>
<path d="M8.73915 11.9517H0V14.7396H7.69877H7.62941H7.74501C10.1957 14.7396 10.0107 16.2707 10.0107 16.2707V19.9271C10.0107 22.5779 8.0918 22.3265 8.0918 22.3265H6.95895H3.05177H3.00553V16.4535H0V24.9088H7.88373C12.5076 24.9088 12.9238 22.258 12.9238 20.2927V15.8137C12.9238 13.0486 10.843 11.9517 8.73915 11.9517Z" fill="#093A7E"/>
<path d="M18.3799 11.9287H18.2412C18.01 11.9516 17.5707 12.1344 17.1083 13.0485C16.0217 15.9507 13.7329 21.9608 13.0624 23.2405C12.4382 24.4288 11.9758 24.8402 11.7446 24.9773H15.6287C16.4379 24.9773 16.7384 24.1775 16.7384 24.1775C17.8713 21.3438 20.53 14.7624 21.108 13.437C21.7322 12.043 22.4258 11.9287 22.5876 11.9287H18.3799Z" fill="#7BAE2D"/>
<path d="M22.4491 11.9291H22.5878C22.8421 11.952 23.397 12.2033 23.9056 13.4602C23.9288 13.5288 23.9519 13.5745 23.9981 13.6202L27.8128 22.9895C28.3215 24.2235 28.7838 24.612 29.7317 24.9548H25.1772C24.368 24.9548 24.0675 24.155 24.0675 24.155C22.9346 21.3213 20.2759 14.7399 19.6979 13.4145C19.0737 12.0205 18.3801 11.9062 18.2183 11.9062H22.4491V11.9291Z" fill="#093A7E"/>
<path d="M42.401 12.9342C42.401 12.4315 41.8692 11.9287 41.3144 11.9287C41.2912 11.9287 38.7712 11.9287 38.7712 11.9287V17.8931C38.6094 17.2533 38.1701 17.1161 37.8696 17.0704C37.8233 17.0704 33.5 16.5677 33.5 16.5677C33.0838 16.522 32.4365 16.4763 32.4365 16.0421V13.5284V13.0942C32.4365 12.4543 31.9047 11.9516 31.2805 11.9516C31.2574 11.9516 31.2112 11.9516 31.2112 11.9516H28.9917V25.0001H32.4596V19.31C32.5983 19.7441 32.8526 20.0184 33.5231 20.0869C33.5231 20.0869 37.8464 20.6125 37.9158 20.6125C38.2626 20.6582 38.7943 20.6811 38.8175 21.0696V24.9773H42.4472L42.401 12.9342Z" fill="#093A7E"/>
<path d="M62.8387 12.9342C62.8387 12.4315 62.3301 11.9287 61.7521 11.9287C61.729 11.9287 61.7059 11.9287 61.6828 11.9287C61.6596 11.9287 61.6365 11.9287 61.6134 11.9287H59.209V24.9773H62.8156V13.1856C62.8387 13.1627 62.8387 12.9342 62.8387 12.9342Z" fill="#093A7E"/>
<path d="M77.2881 14.5567C77.0338 14.2139 76.7101 13.9397 76.2708 13.734C75.8547 13.5284 75.3692 13.4141 74.8374 13.4141C74.56 13.4141 74.2594 13.4598 73.982 13.5284C73.6815 13.5969 73.4272 13.734 73.196 13.894C72.9648 14.054 72.7567 14.2825 72.618 14.5339C72.4793 14.7852 72.3868 15.0823 72.3868 15.4479C72.3868 15.7907 72.4561 16.0649 72.5948 16.2935C72.7336 16.522 72.9185 16.7048 73.1497 16.8648C73.3809 17.0247 73.6583 17.1618 73.9589 17.2761C74.2826 17.3904 74.6062 17.5046 74.953 17.6189C75.3692 17.756 75.8084 17.8931 76.2477 18.0531C76.687 18.213 77.08 18.4416 77.4268 18.6929C77.7736 18.9672 78.0742 19.2871 78.3054 19.6984C78.5365 20.1098 78.6521 20.6125 78.6521 21.2295C78.6521 21.8694 78.5365 22.4407 78.2822 22.8977C78.051 23.3776 77.7274 23.7661 77.3112 24.0632C76.9182 24.3831 76.4558 24.6116 75.924 24.7488C75.3923 24.9087 74.8606 24.9773 74.3057 24.9773C73.5196 24.9773 72.7567 24.8173 72.0169 24.5202C71.277 24.2232 70.6759 23.7661 70.1904 23.172L71.5545 22.0294C71.855 22.4635 72.2481 22.8063 72.7336 23.0806C73.2191 23.3548 73.7739 23.4919 74.3519 23.4919C74.6525 23.4919 74.953 23.4462 75.2305 23.3776C75.531 23.2862 75.7853 23.172 76.0396 22.9891C76.2708 22.8063 76.4789 22.6007 76.6408 22.3264C76.8026 22.0522 76.8719 21.7551 76.8719 21.3666C76.8719 21.001 76.8026 20.6811 76.6408 20.4297C76.4789 20.1783 76.2708 19.9727 75.9934 19.7898C75.716 19.607 75.4154 19.4699 75.0455 19.3328C74.6756 19.2185 74.3057 19.0814 73.9127 18.9672C73.5196 18.8529 73.1266 18.7158 72.7336 18.533C72.3405 18.373 71.9937 18.1445 71.6932 17.8931C71.3926 17.6189 71.1383 17.299 70.9534 16.9105C70.7684 16.522 70.6759 16.0421 70.6759 15.4708C70.6759 14.8538 70.7915 14.3282 71.069 13.8711C71.3233 13.437 71.647 13.0485 72.0631 12.7742C72.4793 12.4772 72.9416 12.2715 73.4503 12.1344C73.9589 11.9973 74.4906 11.9287 74.9993 11.9287C75.7391 11.9287 76.4096 12.0658 77.0569 12.3172C77.7042 12.5686 78.2129 12.9114 78.6059 13.3455L77.2881 14.5567Z" fill="#093A7E"/>
<path d="M93.7956 18.4416C93.7956 19.4014 93.6338 20.2697 93.287 21.0696C92.9402 21.8694 92.4778 22.555 91.8998 23.1491C91.2987 23.7204 90.6051 24.1775 89.796 24.4974C88.9868 24.8173 88.0851 24.9773 87.1372 24.9773C86.1893 24.9773 85.2877 24.8173 84.4785 24.4974C83.6693 24.1775 82.9757 23.7204 82.3746 23.1491C81.7735 22.5778 81.3342 21.8922 80.9875 21.0696C80.6638 20.2697 80.502 19.3785 80.502 18.4416C80.502 17.4818 80.6638 16.5905 80.9875 15.7907C81.3111 14.9909 81.7735 14.3053 82.3746 13.734C82.9757 13.1627 83.6693 12.7285 84.4785 12.4086C85.2877 12.0887 86.1662 11.9287 87.1372 11.9287C88.0851 11.9287 88.9868 12.0887 89.796 12.4086C90.6051 12.7285 91.3218 13.1627 91.8998 13.734C92.5009 14.3053 92.9633 14.9909 93.287 15.7907C93.6338 16.5905 93.7956 17.4589 93.7956 18.4416ZM91.8998 18.4416C91.8998 17.756 91.7842 17.1161 91.553 16.522C91.3218 15.9278 90.9982 15.4022 90.6051 14.9452C90.189 14.4882 89.6804 14.1225 89.1024 13.8711C88.5244 13.6198 87.8539 13.4827 87.1141 13.4827C86.3974 13.4827 85.7501 13.6198 85.149 13.8711C84.571 14.1454 84.0623 14.4882 83.6693 14.9452C83.2532 15.4022 82.9526 15.9278 82.7214 16.522C82.4902 17.1161 82.3746 17.756 82.3746 18.4416C82.3746 19.1271 82.4902 19.7898 82.7214 20.384C82.9526 21.001 83.2763 21.5266 83.6693 21.9608C84.0855 22.4178 84.571 22.7606 85.149 23.012C85.7269 23.2634 86.3743 23.4005 87.091 23.4005C87.8077 23.4005 88.4782 23.2634 89.0561 23.012C89.6572 22.7606 90.1428 22.395 90.5589 21.9608C90.9751 21.5038 91.2987 20.9782 91.5068 20.384C91.7842 19.767 91.8998 19.1271 91.8998 18.4416Z" fill="#093A7E"/>
<path d="M97.9573 23.1266H103.552V24.6577H96.2002V12.249H97.9573V23.1266Z" fill="#093A7E"/>
<path d="M105.772 24.6577H103.83L109.263 12.249H110.858L116.245 24.6577H114.256L112.985 21.6184H107.043L105.772 24.6577ZM107.644 20.0873H112.361L110.026 14.26L107.644 20.0873Z" fill="#093A7E"/>
<path d="M119.62 24.6577H117.863V12.249H121.886C122.487 12.249 123.065 12.3176 123.596 12.4318C124.151 12.5461 124.614 12.7518 125.03 13.026C125.446 13.3002 125.77 13.643 126.001 14.0772C126.232 14.5114 126.348 15.0598 126.348 15.6768C126.348 16.5909 126.07 17.3222 125.492 17.8935C124.937 18.4648 124.198 18.8076 123.296 18.9676L126.81 24.6577H124.683L121.493 19.1275H119.62V24.6577ZM119.62 17.6878H121.631C122.047 17.6878 122.44 17.6421 122.787 17.5736C123.134 17.505 123.458 17.3908 123.712 17.2308C123.966 17.0708 124.198 16.8652 124.336 16.6138C124.498 16.3624 124.567 16.0425 124.567 15.6768C124.567 15.3112 124.498 14.9913 124.336 14.7399C124.174 14.4885 123.989 14.2829 123.735 14.1458C123.481 13.9858 123.18 13.8944 122.833 13.8258C122.487 13.7573 122.14 13.7344 121.747 13.7344H119.597V17.6878H119.62Z" fill="#093A7E"/>
<path d="M126.232 7.90684C119.62 3.61064 110.025 0 97.8645 0C85.6112 0 76.3404 3.54208 69.7051 7.72402C76.2941 4.50187 86.4204 2.42233 97.7952 2.42233C109.355 2.42233 119.666 4.57043 126.232 7.90684Z" fill="#E49D12"/>
</svg>
