<svg width="12" height="25" viewBox="0 0 12 25" fill="none" xmlns="http://www.w3.org/2000/svg">
<g clip-path="url(#clip0_0_743)">
<path d="M8.25 5H12V0.5H8.25C7.53125 0.5 6.85156 0.640625 6.21094 0.921875C5.57031 1.1875 5.01172 1.55859 4.53516 2.03516C4.05859 2.51172 3.6875 3.07031 3.42188 3.71094C3.14062 4.35156 3 5.03125 3 5.75V8H0V12.5H3V24.5H7.5V12.5H11.25L12 8H7.5V5.75C7.5 5.54688 7.57422 5.37109 7.72266 5.22266C7.87109 5.07422 8.04688 5 8.25 5Z" fill="white"/>
</g>
<defs>
<clipPath id="clip0_0_743">
<rect width="12" height="25" fill="white" transform="matrix(1 0 0 -1 0 25)"/>
</clipPath>
</defs>
</svg>
