<svg width="348" height="69" viewBox="0 0 348 69" fill="none" xmlns="http://www.w3.org/2000/svg">
<path d="M134.124 32.7351H133.744C133.109 32.7978 131.904 33.2995 130.635 35.808C127.653 43.7725 121.372 60.2658 119.532 63.7777C117.819 67.0387 116.55 68.1675 115.916 68.5438H126.574C128.795 68.5438 129.556 66.3489 129.556 66.3489C132.665 58.5725 139.961 40.5114 141.548 36.8741C143.261 33.0487 145.164 32.7351 145.608 32.7351H134.124Z" fill="#7BAE2D"/>
<path d="M145.291 32.7363H145.671C146.369 32.799 147.892 33.4888 149.288 36.938C149.351 37.1262 149.415 37.2516 149.478 37.377L159.947 63.089C161.343 66.4755 162.548 67.5416 165.276 68.4823H152.777C150.557 68.4823 149.795 66.2873 149.795 66.2873C146.687 58.511 139.39 40.4499 137.804 36.8126C136.091 32.9871 134.188 32.6736 133.744 32.6736H145.291V32.7363Z" fill="#093A7E"/>
<path d="M23.9825 32.7986H0V40.4495H21.1274H20.9371H21.2543C27.9796 40.4495 27.472 44.6512 27.472 44.6512V54.6852C27.472 61.9598 22.206 61.2699 22.206 61.2699H19.0972H8.37484H8.24795V45.1529H0V68.3564H21.635C34.3242 68.3564 35.4662 61.0818 35.4662 55.6885V43.3969C35.4662 35.8088 29.7561 32.7986 23.9825 32.7986Z" fill="#093A7E"/>
<path d="M50.4394 32.7351H50.0587C49.4243 32.7978 48.2188 33.2995 46.9499 35.808C43.9679 43.7725 37.6868 60.2658 35.8469 63.7777C34.1338 67.0387 32.8649 68.1675 32.2305 68.5438H42.8894C45.11 68.5438 45.9348 66.3489 45.9348 66.3489C49.0436 58.5725 56.3399 40.5114 57.926 36.8741C59.639 33.0487 61.5424 32.7351 61.9865 32.7351H50.4394Z" fill="#7BAE2D"/>
<path d="M61.6057 32.7363H61.9864C62.6843 32.799 64.207 33.4888 65.6028 36.938C65.6662 37.1262 65.7297 37.2516 65.8566 37.377L76.3251 63.089C77.7209 66.4755 78.9898 67.5416 81.5911 68.4823H69.0923C66.8717 68.4823 66.0469 66.2873 66.0469 66.2873C62.9381 58.511 55.6418 40.4499 54.0556 36.8126C52.3426 32.9871 50.4392 32.6736 49.9951 32.6736H61.6057V32.7363Z" fill="#093A7E"/>
<path d="M116.36 35.4944C116.36 34.1148 114.9 32.7351 113.378 32.7351C113.314 32.7351 106.399 32.7351 106.399 32.7351V49.103C105.954 47.3471 104.749 46.9708 103.924 46.8454C103.797 46.8454 91.933 45.4657 91.933 45.4657C90.7909 45.3403 89.0145 45.2148 89.0145 44.0233V37.125V35.9334C89.0145 34.1775 87.5552 32.7978 85.8422 32.7978C85.7787 32.7978 85.6518 32.7978 85.6518 32.7978H79.561V68.6065H89.0779V52.9912C89.4586 54.1827 90.1565 54.9352 91.9964 55.1234C91.9964 55.1234 103.861 56.5658 104.051 56.5658C105.003 56.6912 106.462 56.7539 106.525 57.82V68.5438H116.486L116.36 35.4944Z" fill="#093A7E"/>
<path d="M172.445 35.4944C172.445 34.1148 171.05 32.7351 169.463 32.7351C169.4 32.7351 169.337 32.7351 169.273 32.7351C169.21 32.7351 169.146 32.7351 169.083 32.7351H162.484V68.5438H172.382V36.1843C172.445 36.1216 172.445 35.4944 172.445 35.4944Z" fill="#093A7E"/>
<path d="M212.099 39.947C211.401 39.0063 210.513 38.2538 209.307 37.6894C208.165 37.125 206.833 36.8114 205.374 36.8114C204.612 36.8114 203.788 36.9368 203.026 37.125C202.201 37.3131 201.503 37.6894 200.869 38.1284C200.235 38.5673 199.664 39.1945 199.283 39.8843C198.902 40.5741 198.648 41.3894 198.648 42.3928C198.648 43.3335 198.839 44.086 199.219 44.7131C199.6 45.3403 200.108 45.842 200.742 46.2809C201.377 46.7199 202.138 47.0962 202.963 47.4098C203.851 47.7233 204.739 48.0369 205.691 48.3504C206.833 48.7267 208.038 49.103 209.244 49.542C210.449 49.981 211.528 50.6081 212.48 51.2979C213.431 52.0505 214.256 52.9284 214.891 54.0573C215.525 55.1861 215.842 56.5658 215.842 58.259C215.842 60.0149 215.525 61.5827 214.827 62.837C214.193 64.1539 213.304 65.22 212.162 66.0353C211.084 66.9133 209.815 67.5404 208.356 67.9167C206.896 68.3556 205.437 68.5438 203.914 68.5438C201.757 68.5438 199.664 68.1048 197.633 67.2895C195.603 66.4743 193.953 65.22 192.621 63.5895L196.364 60.4539C197.189 61.6454 198.268 62.5861 199.6 63.3387C200.932 64.0912 202.455 64.4675 204.041 64.4675C204.866 64.4675 205.691 64.3421 206.452 64.1539C207.277 63.9031 207.975 63.5895 208.673 63.0878C209.307 62.5861 209.878 62.0217 210.322 61.2692C210.767 60.5166 210.957 59.7014 210.957 58.6353C210.957 57.6319 210.767 56.7539 210.322 56.0641C209.878 55.3742 209.307 54.8098 208.546 54.3081C207.785 53.8064 206.96 53.4301 205.945 53.0539C204.93 52.7403 203.914 52.364 202.836 52.0505C201.757 51.7369 200.679 51.3606 199.6 50.8589C198.522 50.42 197.57 49.7928 196.745 49.103C195.92 48.3505 195.222 47.4725 194.715 46.4064C194.207 45.3403 193.953 44.0233 193.953 42.4555C193.953 40.7623 194.271 39.3199 195.032 38.0656C195.73 36.8741 196.618 35.808 197.76 35.0555C198.902 34.2402 200.171 33.6758 201.567 33.2995C202.963 32.9232 204.422 32.7351 205.818 32.7351C207.848 32.7351 209.688 33.1114 211.464 33.8012C213.241 34.4911 214.637 35.4317 215.715 36.6233L212.099 39.947Z" fill="#093A7E"/>
<path d="M257.399 50.6081C257.399 53.242 256.955 55.6251 256.003 57.82C255.052 60.0149 253.783 61.8963 252.197 63.5268C250.547 65.0946 248.644 66.3489 246.423 67.2268C244.203 68.1048 241.728 68.5438 239.127 68.5438C236.526 68.5438 234.051 68.1048 231.831 67.2268C229.61 66.3489 227.707 65.0946 226.057 63.5268C224.407 61.959 223.202 60.0776 222.25 57.82C221.362 55.6251 220.918 53.1793 220.918 50.6081C220.918 47.9742 221.362 45.5284 222.25 43.3335C223.139 41.1385 224.407 39.2572 226.057 37.6894C227.707 36.1216 229.61 34.93 231.831 34.0521C234.051 33.1741 236.462 32.7351 239.127 32.7351C241.728 32.7351 244.203 33.1741 246.423 34.0521C248.644 34.93 250.611 36.1216 252.197 37.6894C253.846 39.2572 255.115 41.1385 256.003 43.3335C256.955 45.5284 257.399 47.9115 257.399 50.6081ZM252.197 50.6081C252.197 48.7267 251.879 46.9708 251.245 45.3403C250.611 43.7097 249.722 42.2674 248.644 41.0131C247.502 39.7589 246.106 38.7555 244.52 38.0656C242.934 37.3758 241.094 36.9995 239.063 36.9995C237.097 36.9995 235.32 37.3758 233.671 38.0656C232.084 38.8182 230.689 39.7589 229.61 41.0131C228.468 42.2674 227.643 43.7097 227.009 45.3403C226.374 46.9708 226.057 48.7267 226.057 50.6081C226.057 52.4895 226.374 54.3081 227.009 55.9386C227.643 57.6319 228.531 59.0742 229.61 60.2658C230.752 61.52 232.084 62.4607 233.671 63.1505C235.257 63.8404 237.033 64.2166 239 64.2166C240.967 64.2166 242.807 63.8404 244.393 63.1505C246.042 62.4607 247.375 61.4573 248.517 60.2658C249.659 59.0115 250.547 57.5691 251.118 55.9386C251.879 54.2454 252.197 52.4895 252.197 50.6081Z" fill="#093A7E"/>
<path d="M268.82 63.4653H284.174V67.667H263.998V33.6143H268.82V63.4653Z" fill="#093A7E"/>
<path d="M290.264 67.667H284.935L299.845 33.6143H304.223L319.005 67.667H313.549L310.06 59.3263H293.754L290.264 67.667ZM295.404 55.1246H308.347L301.939 39.1329L295.404 55.1246Z" fill="#093A7E"/>
<path d="M328.268 67.667H323.446V33.6143H334.486C336.135 33.6143 337.722 33.8024 339.181 34.116C340.704 34.4295 341.972 34.9939 343.114 35.7465C344.256 36.499 345.145 37.4397 345.779 38.6312C346.414 39.8228 346.731 41.3279 346.731 43.0211C346.731 45.5296 345.97 47.5364 344.383 49.1042C342.861 50.672 340.83 51.6127 338.356 52.0517L348 67.667H342.163L333.407 52.4906H328.268V67.667ZM328.268 48.5398H333.788C334.93 48.5398 336.009 48.4143 336.96 48.2262C337.912 48.0381 338.8 47.7245 339.498 47.2855C340.196 46.8465 340.83 46.2821 341.211 45.5923C341.655 44.9025 341.846 44.0245 341.846 43.0211C341.846 42.0177 341.655 41.1397 341.211 40.4499C340.767 39.7601 340.259 39.1956 339.562 38.8194C338.864 38.3804 338.039 38.1295 337.087 37.9414C336.135 37.7533 335.184 37.6906 334.105 37.6906H328.205V48.5398H328.268Z" fill="#093A7E"/>
<path d="M346.414 21.6984C328.268 9.90853 301.938 0 268.566 0C234.94 0 209.498 9.7204 191.289 21.1967C209.371 12.3543 237.16 6.6475 268.376 6.6475C300.099 6.6475 328.395 12.5424 346.414 21.6984Z" fill="#E49D12"/>
</svg>
