<svg width="24" height="25" viewBox="0 0 24 25" fill="none" xmlns="http://www.w3.org/2000/svg">
<path d="M23.7656 7.69531C23.7656 7.69531 23.6953 7.39062 23.5547 6.78125C23.4141 6.17188 23.1641 5.6875 22.8047 5.32812C22.3516 4.84375 21.8945 4.55859 21.4336 4.47266C20.9727 4.38672 20.625 4.32812 20.3906 4.29688C19.5625 4.23438 18.6562 4.1875 17.6719 4.15625C16.6875 4.125 15.7773 4.10156 14.9414 4.08594C14.1055 4.07031 13.4062 4.0625 12.8438 4.0625C12.2812 4.0625 12 4.0625 12 4.0625C12 4.0625 11.7188 4.0625 11.1562 4.0625C10.5938 4.0625 9.89453 4.07031 9.05859 4.08594C8.22266 4.10156 7.3125 4.125 6.32812 4.15625C5.34375 4.1875 4.4375 4.23438 3.60938 4.29688C3.375 4.32812 3.02734 4.38672 2.56641 4.47266C2.10547 4.55859 1.64844 4.84375 1.19531 5.32812C0.835938 5.6875 0.585938 6.17188 0.445312 6.78125C0.304688 7.39062 0.234375 7.69531 0.234375 7.69531C0.234375 7.69531 0.195312 8.10156 0.117188 8.91406C0.0390625 9.72656 0 10.6172 0 11.5859V13.4141C0 14.3828 0.0390625 15.2695 0.117188 16.0742C0.195312 16.8789 0.234375 17.2812 0.234375 17.2812C0.234375 17.2812 0.304688 17.5898 0.445312 18.207C0.585938 18.8242 0.835938 19.3125 1.19531 19.6719C1.64844 20.1562 2.13672 20.4375 2.66016 20.5156C3.18359 20.5938 3.57812 20.6562 3.84375 20.7031C4.32812 20.75 5.02344 20.7891 5.92969 20.8203C6.83594 20.8516 7.73828 20.875 8.63672 20.8906C9.53516 20.9062 10.3203 20.9219 10.9922 20.9375C11.6641 20.9375 12 20.9375 12 20.9375C12 20.9375 12.2812 20.9375 12.8438 20.9375C13.4062 20.9375 14.1055 20.9258 14.9414 20.9023C15.7773 20.8789 16.6875 20.8516 17.6719 20.8203C18.6562 20.7891 19.5703 20.7422 20.4141 20.6797C20.6484 20.6641 20.9922 20.6133 21.4453 20.5273C21.8984 20.4414 22.3516 20.1562 22.8047 19.6719C23.1641 19.3125 23.4141 18.8242 23.5547 18.207C23.6953 17.5898 23.7656 17.2812 23.7656 17.2812C23.7656 17.2812 23.8047 16.8789 23.8828 16.0742C23.9609 15.2695 24 14.3828 24 13.4141V11.5859C24 10.6172 23.9609 9.72656 23.8828 8.91406C23.8047 8.10156 23.7656 7.69531 23.7656 7.69531ZM9.51562 15.6172V8.86719L16.0078 12.2422L9.51562 15.6172Z" fill="white"/>
</svg>
