<svg width="21" height="20" viewBox="0 0 21 20" fill="none" xmlns="http://www.w3.org/2000/svg">
<path d="M7.5 6.5H11.6484V8.63281H11.7188C12 8.11719 12.4883 7.63281 13.1836 7.17969C13.8789 6.72656 14.75 6.5 15.7969 6.5C16.9062 6.5 17.7969 6.66406 18.4688 6.99219C19.1406 7.30469 19.6641 7.74219 20.0391 8.30469C20.4141 8.86719 20.6719 9.53125 20.8125 10.2969C20.9375 11.0625 21 11.8906 21 12.7812V20H16.6641V13.6016C16.6641 12.8359 16.5664 12.0625 16.3711 11.2812C16.1758 10.5 15.5234 10.1094 14.4141 10.1094C13.2891 10.1094 12.5781 10.457 12.2812 11.1523C11.9844 11.8477 11.8359 12.625 11.8359 13.4844V20H7.5V6.5ZM0 6.5H4.5V20H0V6.5ZM4.5 2.75C4.5 3.375 4.28125 3.90625 3.84375 4.34375C3.40625 4.78125 2.875 5 2.25 5C1.625 5 1.09375 4.78125 0.65625 4.34375C0.21875 3.90625 0 3.375 0 2.75C0 2.125 0.21875 1.59375 0.65625 1.15625C1.09375 0.71875 1.625 0.5 2.25 0.5C2.875 0.5 3.40625 0.71875 3.84375 1.15625C4.28125 1.59375 4.5 2.125 4.5 2.75Z" fill="white"/>
</svg>
